<svg width="32" height="32" viewBox="0 0 32 32" fill="none" xmlns="http://www.w3.org/2000/svg">
<path d="M5.33464 28.0003H6.66797V10.667H5.33464C4.62739 10.667 3.94911 10.9479 3.44902 11.448C2.94892 11.9481 2.66797 12.6264 2.66797 13.3337V25.3337C2.66797 26.0409 2.94892 26.7192 3.44902 27.2193C3.94911 27.7194 4.62739 28.0003 5.33464 28.0003ZM26.668 10.667H17.3346L18.8306 6.17633C18.9641 5.77555 19.0005 5.34879 18.9367 4.9312C18.873 4.51361 18.7109 4.11714 18.4639 3.77445C18.2169 3.43176 17.8921 3.15265 17.5161 2.96011C17.1401 2.76756 16.7237 2.6671 16.3013 2.66699H16.0013L9.33464 9.91766V28.0003H24.0013L29.2173 16.539L29.3346 16.0003V13.3337C29.3346 12.6264 29.0537 11.9481 28.5536 11.448C28.0535 10.9479 27.3752 10.667 26.668 10.667V10.667Z" fill="#065096"/>
</svg>
